<svg id="Layer_1" data-name="Layer 1" xmlns="http://www.w3.org/2000/svg" xmlns:xlink="http://www.w3.org/1999/xlink" viewBox="0 0 500 500">
  <defs>
    <style>
      .cls-1 {
        fill: none;
      }

      .cls-2 {
        clip-path: url(#clip-path);
      }

      .cls-3 {
        fill: url(#RadRed);
      }

      .cls-4 {
        fill: url(#RadSimpleGreen);
      }

      .cls-5 {
        fill: #1a1a1a;
      }
    </style>
    <clipPath id="clip-path">
      <path class="cls-1" d="M194.64,217.61c-4.35-2.34-24.12-9.53-38.51-7s-78.68,29.31-98.17,42c-5.33,3.48,9.53,36.38,12.77,40.33s26.07,32.73,31.82,39.2,33.17,37.29,37.76,36.32c10.19-2.16,69.88-58,78.39-77.31,3-6.79,5.69-19.73,5.54-24.07S194.64,217.61,194.64,217.61Z"/>
    </clipPath>
    <radialGradient id="RadRed" cx="196.37" cy="248.83" r="188.23" gradientUnits="userSpaceOnUse">
      <stop offset="0.02" stop-color="#333"/>
      <stop offset="0.1" stop-color="#453132"/>
      <stop offset="0.24" stop-color="#732b2e"/>
      <stop offset="0.43" stop-color="#be2228"/>
      <stop offset="0.55" stop-color="#ed1c24"/>
      <stop offset="0.6" stop-color="#e51c24"/>
      <stop offset="0.66" stop-color="#cf1c23"/>
      <stop offset="0.75" stop-color="#aa1b21"/>
      <stop offset="0.85" stop-color="#781b1e"/>
      <stop offset="0.95" stop-color="#381a1b"/>
      <stop offset="1" stop-color="#1a1a1a"/>
    </radialGradient>
    <radialGradient id="RadSimpleGreen" cx="196.37" cy="248.83" r="188.23" gradientUnits="userSpaceOnUse">
      <stop offset="0.02" stop-color="#1e3f1c"/>
      <stop offset="0.13" stop-color="#215123"/>
      <stop offset="0.34" stop-color="#287f35"/>
      <stop offset="0.55" stop-color="#30b44a"/>
      <stop offset="0.7" stop-color="#38b549"/>
      <stop offset="0.92" stop-color="#4eb848"/>
      <stop offset="1" stop-color="#57b947"/>
    </radialGradient>
  </defs>
  <g id="tail">
    <g class="cls-2">
      <g id="tailColor">
        <ellipse id="TailColor-2" data-name="TailColor" class="cls-3" cx="196.37" cy="248.83" rx="183.06" ry="193.25"/>
        <ellipse id="TailColor-3" data-name="TailColor" class="cls-4" cx="196.37" cy="248.83" rx="183.06" ry="193.25"/>
      </g>
      <g id="tailPatHalfSnake">
        <path class="cls-5" d="M189.31,219.44c-.06,2.49-3.76,11.8-3.75,15.09s-2.12,8.52-2.51,13.36,2.11,10.45,3.19,10.64,9,3,10.17,4.33,4.64,2.83,10.25,3.8,13,1.94,13.56,3.1a7.22,7.22,0,0,1,1,4.56c-.2,2.41-.56,14.43-1,11.61s-1.56-10.56-3.88-10.75-11.23,4.06-11.61,1-7.68-8.66-9.75-8.69-15.85-2.6-15.24-4.6,1.37-6.92-1.14-7.08-6.65-4.54-3-7.57,4.59-9.42,2.07-10-9.68-5.23-3.48-6.77,10.25-2.5,9.29-6-1-4.66.38-5,.09-6-2.08-6.17-2.33-3,.46-1.5S189.36,217.27,189.31,219.44Z"/>
        <path class="cls-5" d="M191,279.82c-1.28,1.95-7,11.39-3.09,7.63s6.19-5.33,6.19-3.38,1.94,7.39,2.33,1.86S196.6,271.31,191,279.82Z"/>
        <path class="cls-5" d="M204.92,288.34c0-3.42,4.45-6.75,5-2.41s-1.35,9.18-2.51,7.25S204.92,289.89,204.92,288.34Z"/>
        <path class="cls-5" d="M173,213.44c-2.52-1.26-4.25-2.39-7.74-.71s-6.77,4.38-2.9,3.61,9.1-1.74,10.64-.78S174.92,214.4,173,213.44Z"/>
        <path class="cls-5" d="M162.73,223.11c6.15,1.54,12.69,2.52,9,3.29s-9,4.65-7.42,2.52S158.08,222,162.73,223.11Z"/>
        <path class="cls-5" d="M157.31,237.82c4.13,2.42,2.51-2.86,6.58-1.33s7.93,3.07,4.64,3.27-2.9.77-3.48,2.71-1.36,6.77.58,5.42S171,249,167.44,250s-15.94,8.6-12.07,3.83,6.28-6.58,5.85-8.19-13-1.82-8.36-3.37S155,236.47,157.31,237.82Z"/>
        <path class="cls-5" d="M164.08,261.05c4.26-3.49,11-2.71,8.7-1.36s-2.66,7.61-5.78,7.77-3.69-.22-2.92-2.73S164.08,261.05,164.08,261.05Z"/>
        <path class="cls-5" d="M172.78,276.34c-1.73-2.64-2.94-7.16.47-7.55s9.41-1.55,8.64,1-4.69,7.74-2.15,8.32,5.57,4.61,2.22,3.76-12.23,4.31-10.22,1.63S173.54,277.5,172.78,276.34Z"/>
        <path class="cls-5" d="M154.6,230.66c3.37.18,10.45-1.35,4.06-2.71s-18.87,1.46-13.69,1.6S150.92,230.47,154.6,230.66Z"/>
        <path class="cls-5" d="M151.11,211.88c-1.15.75-4.87,2.5-3.31,3.09s6.41.21,7-1.15S154.08,210,151.11,211.88Z"/>
        <path class="cls-5" d="M175.89,291.44c2.38-3.05,4.6-5.23,3.85-3.1s2.39,6.1.14,5.28-7.33,5.36-6.63,2.85A12.78,12.78,0,0,1,175.89,291.44Z"/>
        <path class="cls-5" d="M148.79,264.73c-3.06,1-.34-2.52,3.7-3.1s7.14,2.9,4.62,3.1S154.6,262.79,148.79,264.73Z"/>
        <path class="cls-5" d="M154.93,276.34c-1.14,1.6-5.82,2.71-3.75,3.29s4,.78,5.35-1.65S157.46,272.77,154.93,276.34Z"/>
        <path class="cls-5" d="M145,221.37c-3,.94-13.79,4.91-11.28,4.87s8.1-1.93,10.05-2.43S150.83,219.55,145,221.37Z"/>
        <path class="cls-5" d="M198.15,302.08c-1,2.09-6.39,9.07-3.1,7.34S199.93,298.38,198.15,302.08Z"/>
      </g>
      <g id="tailPatMidSnake">
        <path class="cls-5" d="M126.34,186.66c6,2.87,12.77,7,12.39,3.53s-8.13-6.72-12.39-7.41S110.86,179.24,126.34,186.66Z"/>
        <path class="cls-5" d="M112.79,194.64c2.5.26,6.19-1.65,7.94.83S104.86,193.82,112.79,194.64Z"/>
        <path class="cls-5" d="M120.15,203.24c2.06-1.31,4.51,2.45,2.71,3.87s-8.39,2.45-6.33,1.42,1.79-1.55-.39-2.71-1.93-2.33,1.68-1.23S118.73,204.15,120.15,203.24Z"/>
        <path class="cls-5" d="M102,228.6c2.29.09,4.84-2.23,6.68-.47s1.82.81-.87,1.42S98.66,228.46,102,228.6Z"/>
        <path class="cls-5" d="M101,237.72c-2.38-1.8,2.86-2,5.37-1.51s5.66,5.14,3.51,3.76-5.83,1.38-6.8,0A6,6,0,0,0,101,237.72Z"/>
        <path class="cls-5" d="M98.08,249.76c3.43-2.59,4.52-5.86,7.39-4S111.24,250,108,249,95.15,252,98.08,249.76Z"/>
        <path class="cls-5" d="M110.73,255.39c2.25-.74,3.84-1.12,4-2.66s1.92-1,1.92.87-1.12,5.13-1.92,4.16S109.05,255.93,110.73,255.39Z"/>
        <path class="cls-5" d="M107,274.64c1.92-2.54.78-3.53,5-2.95s8.13,2.86,4.64,2.4S105.63,276.43,107,274.64Z"/>
        <path class="cls-5" d="M122.08,284.25c-2.23,2.05-10.93,5.44-8.56,6a10.13,10.13,0,0,0,7.21-1.53C122.47,287.56,124.86,281.69,122.08,284.25Z"/>
        <path class="cls-5" d="M125.56,322.6c-2.11.47,1.7-6.44,3.38-7.16s5.5-2.91,4.38-1.17S127.31,322.21,125.56,322.6Z"/>
        <path class="cls-5" d="M130,309.7c2.68.61,3.43,2.81,5.21-.28s3.13-8,1.19-5.34S125.76,308.72,130,309.7Z"/>
        <path class="cls-5" d="M143.05,327.73c-3.38-.69-1-5.33,3-7.07s5.81-1.16,3.1,0-5.08,2.25-4.21,4.07S145.44,328.22,143.05,327.73Z"/>
        <path class="cls-5" d="M167.44,333.44c-1.43,1-2.18,4.39-3.45,6s-5.72,5.25-3.4,4.67S172.93,329.53,167.44,333.44Z"/>
        <path class="cls-5" d="M168.51,339.24c-2.53,1.36.56,4,1.26,4.9s.23-3.54,1.92-4.9S171.83,337.46,168.51,339.24Z"/>
        <path class="cls-5" d="M194.78,344.14c-5.88,3.12-5.66,3.81-3.86,4.78s4.18-.58,3.86,2.71.85,5.61,1.63,1.55S196.38,343.3,194.78,344.14Z"/>
        <path class="cls-5" d="M208.49,359.11c1.18,4-6.8-10.05-3.57-9.41s-.36-12.93,1.43-8.21S207.79,356.79,208.49,359.11Z"/>
        <path class="cls-5" d="M212.87,348.66c-2.18,1.64-2.79,1.55-1.11,3.61S214.36,347.54,212.87,348.66Z"/>
        <path class="cls-5" d="M232.79,339.5c-2.18,3.34-6.84,6.45-4.64,8.39a22.75,22.75,0,0,1,4.64,5.29c.9,1.55,2.07.38,1-1.81s-4.38-4.39-2.19-5.29S233.56,338.31,232.79,339.5Z"/>
        <path class="cls-5" d="M242,344.06c-1.16,1.77,5.29.6,4.65,3.57s-.13,5.43,1,2.07,2.19-8.91.9-7.75S242.6,343.07,242,344.06Z"/>
        <path class="cls-5" d="M145,311c2.2-.57,4.53-4.33,6.21-5.57s4.43-2.63,1.31-2.13-5.65,1.05-5.06,2.13S143.79,311.34,145,311Z"/>
        <path class="cls-5" d="M130,283.61c2.38,1.61-1.3-5.14,3.52-5.34s6.9-2.76,3.83-2-8.71-1.72-8.12-.13S129,282.94,130,283.61Z"/>
        <path class="cls-5" d="M192.85,338.45c-.73,1.42-7.48-2.89-5-8.5s2.32-9.87,2.51-5.61-2.39,7.72-.32,8.41S193.56,337.07,192.85,338.45Z"/>
        <path class="cls-5" d="M120.85,236.21c-2.2,1.71,8,3.3,9.15,2s3.31-3.2,1.37-2.45S121.24,235.9,120.85,236.21Z"/>
        <path class="cls-5" d="M144.76,185.76c1.64,1.52,4.51,1.74,5.72,3.68s5.52.19,2-1.84S142.47,183.63,144.76,185.76Z"/>
        <path class="cls-5" d="M236.53,332.75c-.87.31.37-2.13.55-3.41.42-3,.65-6.25-.48-6.72-1.62-.67,1.91-2.35,2.34,1.07s-1.5,3.45-.63,4.13S237.66,332.35,236.53,332.75Z"/>
        <path class="cls-5" d="M182.21,349.7c-1,2.14-3.74,11.5-2.84,12.33s.39-1.24.78-2.21,4.12-2.77,3-2.77S183.39,347.26,182.21,349.7Z"/>
        <path class="cls-5" d="M101.56,219.11c-2.72-.62-6.78-3-4-2.71s4.16,0,4,.65S104.92,219.89,101.56,219.11Z"/>
      </g>
      <g id="tailPatBlackEnd">
        <path class="cls-5" d="M128.94,158c-8.21-.45-28.15-4.35-32.41,0s-10.84,3.31-11.22,11.38-.88,17.53-4.65,19.5.9,7.61-1.23,9.83-3.4,2-12.32,6.24-10.52,6.54-10.29,11-4.1,15.42-5.22,21,5.84,4.74,7.38,10.76-1.93,5.05,1.55,12.7,8.19,14,5.26,18.55S59,290.08,62.08,294.34s5.42-.39,11.61,6.58,11.62,0,13.55,5.42S87.33,315.48,84,327s-2.07,12.32,3.26,14.59,11.26,9.3,16.28,9.3,7.72,0,11.21,5.8,15.3-7,17.32-3.87-4.22,9.43-2.05,14.27,9.09,9,9.49,13.21,10.12,6.59,14.94,2.71,8.68-18.16,11-14.5,3.23,10.63,7.42,11.41,11.86-15,19.25-13.52,7.36,12.36,12.21,11.19,1.73-5.37,12-3.26,18,7.52,22.48,4,5.25-15.38,11.42-13.11,17.35,2.9,17.09-3.2-11.73-5.17-8.81-16.11,14,1.13,14,1.13l3.69,27.25-37.35,31.14-74.31,32.9L94.21,401.61,51.47,368.48,23,301.31,14,232.5l14.18-60,36.94-42.37,45.4,7.46Z"/>
      </g>
      <g id="tailLyre">
        <path class="cls-1" d="M196.41,219s-6-6.22-27-11.4c-8.09-2-46.4-1.21-61.36-2s-73.85-13.7-72.56-10.09,60.69,28.68,65.59,56,7.24,41.82,19.35,53.94,32.49,26.54,38.71,29.93c23.43,12.78,2.58,74.71,8.26,77.81S194,371.76,206.6,333.05s19.55-63.49,17.65-72.52S196.41,219,196.41,219Z"/>
      </g>
      <g id="tailRound">
        <path class="cls-1" d="M194.21,219.39s-18.59-16.49-72.71,3c-30.55,11-45.32,32.67-49.35,54.8-.43,2.4.33,4.79.14,7.18-.15,2-1.31,4-1.31,5.93a74.17,74.17,0,0,0,1.47,14.55c.54,2.71.16,4.28,1,6.83.75,2.29,3.76,4.52,4.72,6.65.8,1.78.59,4.57,1.53,6.22a63.68,63.68,0,0,0,4.51,6.82c.77,1,2.66,1,3.51,2,1.69,2,2.44,5,4.4,6.92,1.72,1.66,3.55,3.28,5.47,4.82,2.69,2.18,5.57,3.15,8.6,5,1.09.67,2.21,2.4,3.34,3a75.52,75.52,0,0,0,7.69,3.7c2.08.86,5.28.56,7.44,1.22.9.28.73,1.61,1.64,1.85,20.17,5.32,43.26,1.47,63.61-20.48,25.63-27.65,32.38-49.49,34.62-73S194.21,219.39,194.21,219.39Z"/>
      </g>
      <g id="tailVeil">
        <path class="cls-1" d="M195.81,218.75c-2.88-2.64-2.4-6-51.54-11.75s-77.68-12-83.91-11.5S41.42,207,39.51,215.39s-8.39,7.43-7,13.43,9.83,10.31,9.35,12.7-6.71,9.83-2.63,14.63,5.75,4.55,4.55,12.94,6.23,15.82,6.47,19.42-1.2,7.19,4.56,7.91-10.07,13.66-1.2,22.06,15.1,11.74,16.06,17.74,4.8,13.9,8.87,15.34,8.15,9.83,9.35,13.42,3.36,8.87,6.95,8.39,6.47,2.64,7,5.76,5.28,8.39,10.07,9.11,3.84,4.07,2.4,7.19-3.12,9.59,3.84,9.59,11.26-4.08,14.86-1,2.4,8.63,6.71,9.11,12.47-3.84,12.23.72-1,12.7,3.59,8.15,15.11-22.06,16.3-19.42-1.19,9.59,4.8-1.92,21.57-36.2,29.72-59.21,15.59-55.38,16.31-62.57,2.87-17.5,2.87-17.5Z"/>
      </g>
      <g id="tailSpear">
        <path class="cls-1" d="M197.71,219.85s-17.07-15.13-66.75,2.76c-28.05,10.11-39.61,25-43.31,45.31-.4,2.2.31,4.4.13,6.59-.15,1.82-1.2,3.64-1.2,5.45a67.54,67.54,0,0,0,1.34,13.35c.5,2.49.15,3.93.91,6.27.69,2.11,1,7.88,1.93,9.84.73,1.64.74,5.05-.82,10.14-.92,3-22.16,24-22.59,26.51-.37,2.2-13.66,18.05-12.88,19C56,366.88,71,354.21,74.61,354.24c2.21,0,21.5-13.89,28.86-15.52,3.52-.78,10.64-.58,13.42,1.13,1,.62,10.58.07,11.62.64,2.28,1.25,5.64.4,8.07,1.4,1.9.79,4.84.51,6.82,1.12.83.26.67,1.48,1.51,1.7,18.52,4.88,30.15,5.48,48.84-14.67,23.52-25.38,29.72-45.43,31.77-67S197.71,219.85,197.71,219.85Z"/>
      </g>
      <g id="tailHalfmoon">
        <path class="cls-1" d="M269.08,366.75c-4.55,4.21-11.25,13.4-16.48,16.26-5.43,3-13.88.46-19.43,2.69-5.72,2.3-13.66-3.31-19.45-1.77-5.95,1.58-10.49,7.13-16.45,7.91s-11.93,9.8-18,9.77-11.81-9.51-17.8-10.37-14.24,6.78-20.07,5.08-8.54-12.71-14.1-15.23a125.88,125.88,0,0,1-16-8.1c-5.07-3.24-6.88-10-11.57-14s-13.44-2.9-17.57-7.49c-4-4.43-10.44-7.42-14-12.5s-3.22-12.8-6-18.18C59.33,315.27,54.06,310.74,52,305s4.93-14.06,3.59-20-7.79-10.77-8.31-16.88-7.49-12.53-7.18-18.68,7.47-11.87,8.61-17.93.2-12.76,2.16-18.63A144.18,144.18,0,0,1,58,195.55c2.7-5.48,12.45-6.67,15.91-11.85s.85-14.45,5-19.15,5.85-12.08,10.53-16.25c4.52-4,9.06.32,15.28-.57,7-1,90,69.88,90,69.88l29.6,49.47s35.52,72.68,38.1,79.9S273.38,362.78,269.08,366.75Z"/>
      </g>
    </g>
  </g>
</svg>
