<svg id="Layer_1" data-name="Layer 1" xmlns="http://www.w3.org/2000/svg" xmlns:xlink="http://www.w3.org/1999/xlink" viewBox="0 0 500 500">
  <defs>
    <style>
      .cls-1 {
        fill: none;
      }

      .cls-2 {
        clip-path: url(#clip-path);
      }

      .cls-3 {
        fill: url(#RadRed);
      }

      .cls-4 {
        fill: url(#RadSimpleGreen);
      }

      .cls-5 {
        fill: #1a1a1a;
      }
    </style>
    <clipPath id="clip-path">
      <path class="cls-1" d="M194.21,219.39s-18.59-16.49-72.71,3c-30.55,11-45.32,32.67-49.35,54.8-.43,2.4.33,4.79.14,7.18-.15,2-1.31,4-1.31,5.93a74.17,74.17,0,0,0,1.47,14.55c.54,2.71.16,4.28,1,6.83.75,2.29,3.76,4.52,4.72,6.65.8,1.78.59,4.57,1.53,6.22a63.68,63.68,0,0,0,4.51,6.82c.77,1,2.66,1,3.51,2,1.69,2,2.44,5,4.4,6.92,1.72,1.66,3.55,3.28,5.47,4.82,2.69,2.18,5.57,3.15,8.6,5,1.09.67,2.21,2.4,3.34,3a75.52,75.52,0,0,0,7.69,3.7c2.08.86,5.28.56,7.44,1.22.9.28.73,1.61,1.64,1.85,20.17,5.32,43.26,1.47,63.61-20.48,25.63-27.65,32.38-49.49,34.62-73S194.21,219.39,194.21,219.39Z"/>
    </clipPath>
    <radialGradient id="RadRed" cx="196.37" cy="248.83" r="188.23" gradientUnits="userSpaceOnUse">
      <stop offset="0.02" stop-color="#333"/>
      <stop offset="0.1" stop-color="#453132"/>
      <stop offset="0.24" stop-color="#732b2e"/>
      <stop offset="0.43" stop-color="#be2228"/>
      <stop offset="0.55" stop-color="#ed1c24"/>
      <stop offset="0.6" stop-color="#e51c24"/>
      <stop offset="0.66" stop-color="#cf1c23"/>
      <stop offset="0.75" stop-color="#aa1b21"/>
      <stop offset="0.85" stop-color="#781b1e"/>
      <stop offset="0.95" stop-color="#381a1b"/>
      <stop offset="1" stop-color="#1a1a1a"/>
    </radialGradient>
    <radialGradient id="RadSimpleGreen" cx="196.37" cy="248.83" r="188.23" gradientUnits="userSpaceOnUse">
      <stop offset="0.02" stop-color="#1e3f1c"/>
      <stop offset="0.13" stop-color="#215123"/>
      <stop offset="0.34" stop-color="#287f35"/>
      <stop offset="0.55" stop-color="#30b44a"/>
      <stop offset="0.7" stop-color="#38b549"/>
      <stop offset="0.92" stop-color="#4eb848"/>
      <stop offset="1" stop-color="#57b947"/>
    </radialGradient>
  </defs>
  <g id="tail">
    <g class="cls-2">
      <g id="tailColor">
        <ellipse id="TailColor-2" data-name="TailColor" class="cls-3" cx="196.37" cy="248.83" rx="183.06" ry="193.25"/>
      </g>
      
      <g id="tailPatHalfSnake">
          <path class="cls-5" d="M189.31,219.44c-.06,2.49-3.76,11.8-3.75,15.09s-2.12,8.52-2.51,13.36,2.11,10.45,3.19,10.64,9,3,10.17,4.33,4.64,2.83,10.25,3.8,13,1.94,13.56,3.1a7.22,7.22,0,0,1,1,4.56c-.2,2.41-.56,14.43-1,11.61s-1.56-10.56-3.88-10.75-11.23,4.06-11.61,1-7.68-8.66-9.75-8.69-15.85-2.6-15.24-4.6,1.37-6.92-1.14-7.08-6.65-4.54-3-7.57,4.59-9.42,2.07-10-9.68-5.23-3.48-6.77,10.25-2.5,9.29-6-1-4.66.38-5,.09-6-2.08-6.17-2.33-3,.46-1.5S189.36,217.27,189.31,219.44Z"/>
          <path class="cls-5" d="M191,279.82c-1.28,1.95-7,11.39-3.09,7.63s6.19-5.33,6.19-3.38,1.94,7.39,2.33,1.86S196.6,271.31,191,279.82Z"/>
          <path class="cls-5" d="M204.92,288.34c0-3.42,4.45-6.75,5-2.41s-1.35,9.18-2.51,7.25S204.92,289.89,204.92,288.34Z"/>
          <path class="cls-5" d="M173,213.44c-2.52-1.26-4.25-2.39-7.74-.71s-6.77,4.38-2.9,3.61,9.1-1.74,10.64-.78S174.92,214.4,173,213.44Z"/>
          <path class="cls-5" d="M162.73,223.11c6.15,1.54,12.69,2.52,9,3.29s-9,4.65-7.42,2.52S158.08,222,162.73,223.11Z"/>
          <path class="cls-5" d="M157.31,237.82c4.13,2.42,2.51-2.86,6.58-1.33s7.93,3.07,4.64,3.27-2.9.77-3.48,2.71-1.36,6.77.58,5.42S171,249,167.44,250s-15.94,8.6-12.07,3.83,6.28-6.58,5.85-8.19-13-1.82-8.36-3.37S155,236.47,157.31,237.82Z"/>
          <path class="cls-5" d="M164.08,261.05c4.26-3.49,11-2.71,8.7-1.36s-2.66,7.61-5.78,7.77-3.69-.22-2.92-2.73S164.08,261.05,164.08,261.05Z"/>
          <path class="cls-5" d="M172.78,276.34c-1.73-2.64-2.94-7.16.47-7.55s9.41-1.55,8.64,1-4.69,7.74-2.15,8.32,5.57,4.61,2.22,3.76-12.23,4.31-10.22,1.63S173.54,277.5,172.78,276.34Z"/>
          <path class="cls-5" d="M154.6,230.66c3.37.18,10.45-1.35,4.06-2.71s-18.87,1.46-13.69,1.6S150.92,230.47,154.6,230.66Z"/>
          <path class="cls-5" d="M151.11,211.88c-1.15.75-4.87,2.5-3.31,3.09s6.41.21,7-1.15S154.08,210,151.11,211.88Z"/>
          <path class="cls-5" d="M175.89,291.44c2.38-3.05,4.6-5.23,3.85-3.1s2.39,6.1.14,5.28-7.33,5.36-6.63,2.85A12.78,12.78,0,0,1,175.89,291.44Z"/>
          <path class="cls-5" d="M148.79,264.73c-3.06,1-.34-2.52,3.7-3.1s7.14,2.9,4.62,3.1S154.6,262.79,148.79,264.73Z"/>
          <path class="cls-5" d="M154.93,276.34c-1.14,1.6-5.82,2.71-3.75,3.29s4,.78,5.35-1.65S157.46,272.77,154.93,276.34Z"/>
          <path class="cls-5" d="M145,221.37c-3,.94-13.79,4.91-11.28,4.87s8.1-1.93,10.05-2.43S150.83,219.55,145,221.37Z"/>
          <path class="cls-5" d="M198.15,302.08c-1,2.09-6.39,9.07-3.1,7.34S199.93,298.38,198.15,302.08Z"/>
        </g>
      
    </g>
  </g>
</svg>