<svg id="Layer_1" data-name="Layer 1" xmlns="http://www.w3.org/2000/svg" xmlns:xlink="http://www.w3.org/1999/xlink" viewBox="0 0 500 500">
  <defs>
    <style>
      .cls-1 {
        fill: none;
      }

      .cls-2 {
        clip-path: url(#clip-path);
      }

      .cls-3 {
        fill: url(#RadRed);
      }

      .cls-4 {
        fill: url(#RadSimpleGreen);
      }

      .cls-5 {
        fill: #1a1a1a;
      }
    </style>
    <clipPath id="clip-path">
      <path class="cls-1" d="M194.21,219.39s-18.59-16.49-72.71,3c-30.55,11-45.32,32.67-49.35,54.8-.43,2.4.33,4.79.14,7.18-.15,2-1.31,4-1.31,5.93a74.17,74.17,0,0,0,1.47,14.55c.54,2.71.16,4.28,1,6.83.75,2.29,3.76,4.52,4.72,6.65.8,1.78.59,4.57,1.53,6.22a63.68,63.68,0,0,0,4.51,6.82c.77,1,2.66,1,3.51,2,1.69,2,2.44,5,4.4,6.92,1.72,1.66,3.55,3.28,5.47,4.82,2.69,2.18,5.57,3.15,8.6,5,1.09.67,2.21,2.4,3.34,3a75.52,75.52,0,0,0,7.69,3.7c2.08.86,5.28.56,7.44,1.22.9.28.73,1.61,1.64,1.85,20.17,5.32,43.26,1.47,63.61-20.48,25.63-27.65,32.38-49.49,34.62-73S194.21,219.39,194.21,219.39Z"/>
    </clipPath>
    <radialGradient id="RadRed" cx="196.37" cy="248.83" r="188.23" gradientUnits="userSpaceOnUse">
      <stop offset="0.02" stop-color="#333"/>
      <stop offset="0.1" stop-color="#453132"/>
      <stop offset="0.24" stop-color="#732b2e"/>
      <stop offset="0.43" stop-color="#be2228"/>
      <stop offset="0.55" stop-color="#ed1c24"/>
      <stop offset="0.6" stop-color="#e51c24"/>
      <stop offset="0.66" stop-color="#cf1c23"/>
      <stop offset="0.75" stop-color="#aa1b21"/>
      <stop offset="0.85" stop-color="#781b1e"/>
      <stop offset="0.95" stop-color="#381a1b"/>
      <stop offset="1" stop-color="#1a1a1a"/>
    </radialGradient>
    <radialGradient id="RadSimpleGreen" cx="196.37" cy="248.83" r="188.23" gradientUnits="userSpaceOnUse">
      <stop offset="0.02" stop-color="#1e3f1c"/>
      <stop offset="0.13" stop-color="#215123"/>
      <stop offset="0.34" stop-color="#287f35"/>
      <stop offset="0.55" stop-color="#30b44a"/>
      <stop offset="0.7" stop-color="#38b549"/>
      <stop offset="0.92" stop-color="#4eb848"/>
      <stop offset="1" stop-color="#57b947"/>
    </radialGradient>
  </defs>
  <g id="tail">
    <g class="cls-2">
      <g id="tailColor">
        <ellipse id="TailColor-2" data-name="TailColor" class="cls-3" cx="196.37" cy="248.83" rx="183.06" ry="193.25"/>
      </g>
      
      <g id="tailPatBlackEnd">
                <path class="cls-5" d="M128.94,158c-8.21-.45-28.15-4.35-32.41,0s-10.84,3.31-11.22,11.38-.88,17.53-4.65,19.5.9,7.61-1.23,9.83-3.4,2-12.32,6.24-10.52,6.54-10.29,11-4.1,15.42-5.22,21,5.84,4.74,7.38,10.76-1.93,5.05,1.55,12.7,8.19,14,5.26,18.55S59,290.08,62.08,294.34s5.42-.39,11.61,6.58,11.62,0,13.55,5.42S87.33,315.48,84,327s-2.07,12.32,3.26,14.59,11.26,9.3,16.28,9.3,7.72,0,11.21,5.8,15.3-7,17.32-3.87-4.22,9.43-2.05,14.27,9.09,9,9.49,13.21,10.12,6.59,14.94,2.71,8.68-18.16,11-14.5,3.23,10.63,7.42,11.41,11.86-15,19.25-13.52,7.36,12.36,12.21,11.19,1.73-5.37,12-3.26,18,7.52,22.48,4,5.25-15.38,11.42-13.11,17.35,2.9,17.09-3.2-11.73-5.17-8.81-16.11,14,1.13,14,1.13l3.69,27.25-37.35,31.14-74.31,32.9L94.21,401.61,51.47,368.48,23,301.31,14,232.5l14.18-60,36.94-42.37,45.4,7.46Z"/>
                </g>
      
    </g>
  </g>
</svg>